<?xml version="1.0" encoding="UTF-8" standalone="no"?>
<!DOCTYPE svg PUBLIC "-//W3C//DTD SVG 1.1//EN" "http://www.w3.org/Graphics/SVG/1.1/DTD/svg11.dtd">
<svg width="100%" height="100%" viewBox="0 0 512 170" version="1.1" xmlns="http://www.w3.org/2000/svg" xmlns:xlink="http://www.w3.org/1999/xlink" xml:space="preserve" xmlns:serif="http://www.serif.com/" style="fill-rule:evenodd;clip-rule:evenodd;stroke-linejoin:round;stroke-miterlimit:2;">
    <g transform="matrix(1,0,0,1,0,-171.241244)">
        <g transform="matrix(1,0,0,1,211,241)">
            <g transform="matrix(5.688889,0,0,5.688889,-211,-69.758756)">
                <path d="M33.054,0C30.749,0 28.88,1.869 28.88,4.173L28.88,25.625C28.88,27.93 30.749,29.798 33.054,29.798C35.359,29.798 37.227,27.93 37.227,25.625L37.227,4.173C37.227,1.87 35.359,0 33.054,0" style="fill:white;"/>
            </g>
            <g transform="matrix(5.688889,0,0,5.688889,-211,-69.758756)">
                <path d="M22.37,0.292L4.172,0.292C1.868,0.292 0,2.161 0,4.466C0,6.77 1.868,8.639 4.173,8.639L22.37,8.639C24.675,8.639 26.544,6.77 26.544,4.466C26.544,2.161 24.675,0.292 22.37,0.292" style="fill:white;"/>
            </g>
            <g transform="matrix(5.688889,0,0,5.688889,-211,-69.758756)">
                <path d="M87.66,16.858L78.864,2.541C77.83,0.877 76.423,0.074 74.645,0.074C72.813,0.074 71.255,0.933 70.288,2.541L60.104,19.416C59.408,20.572 58.606,21.052 57.28,21.052L49.71,21.052C49.066,21.052 48.643,20.578 48.643,19.986L48.643,4.033C48.64,1.734 46.777,0 44.478,0C42.178,0 40.314,1.735 40.314,4.034L40.314,23.59C40.314,26.532 43.22,29.381 46.105,29.381L61.345,29.381C63.507,29.381 64.958,27.803 66.193,25.646L74.117,12.045C74.187,11.895 74.317,11.703 74.468,11.703C74.629,11.703 74.729,11.896 74.81,12.035L80,20.357C80.215,20.71 80.256,20.889 80.118,21.203C79.995,21.49 79.714,21.551 79.256,21.551L71.971,21.551C69.808,21.551 68.055,23.303 68.055,25.466C68.055,27.628 69.808,29.381 71.971,29.381L83.856,29.381C86.742,29.381 90,26.628 90,23.033C90,20.754 89.561,19.951 87.66,16.858M20.366,10.976L4.173,10.976C1.868,10.976 0,12.845 0,15.15L0,25.333C0,27.638 1.868,29.506 4.173,29.506C6.478,29.506 8.347,27.638 8.347,25.333L8.347,20.575C8.347,19.884 8.907,19.323 9.599,19.323L20.366,19.323C22.671,19.323 24.54,17.454 24.54,15.15C24.54,12.845 22.671,10.976 20.366,10.976" style="fill:white;"/>
            </g>
        </g>
    </g>
</svg>
