<?xml version="1.0" encoding="UTF-8" standalone="no"?>
<!DOCTYPE svg PUBLIC "-//W3C//DTD SVG 1.1//EN" "http://www.w3.org/Graphics/SVG/1.1/DTD/svg11.dtd">
<svg width="100%" height="100%" viewBox="0 0 284 81" version="1.1" xmlns="http://www.w3.org/2000/svg" xmlns:xlink="http://www.w3.org/1999/xlink" xml:space="preserve" xmlns:serif="http://www.serif.com/" style="fill-rule:evenodd;clip-rule:evenodd;stroke-linejoin:round;stroke-miterlimit:2;">
    <g transform="matrix(1,0,0,1,0,-4.65)">
        <g transform="matrix(3,0,0,3,0,4.65)">
            <path d="M56.8,11.5C56.2,11.9 55.6,12.2 55,12.5C54.3,12.8 53.5,13 52.8,13.1C52.5,13.2 51.1,13.3 51.1,13.3C50.7,13.4 50.4,13.4 49.9,13.5C49.3,13.6 48.5,13.7 47.6,13.9L47.3,14C45.9,14.2 44.5,14.5 43.1,15.1C42.6,15.3 42,15.5 41.5,15.8L41.4,15.8L40.8,16C40.4,16.2 39.7,16.6 39.1,16.9C38.9,17 38.6,17.1 38.3,17C38,17 37.8,16.8 37.6,16.6C37.2,16.1 36.7,15.4 36.4,15C36.2,14.8 36.1,14.6 36,14.5C35.6,14.1 35.3,13.6 34.8,13.2C33.8,12.2 32.7,11.3 31.4,10.5L31.1,10.3C30.3,9.8 29.6,9.4 29.1,9L28.1,8.3C28.1,8.3 26.9,7.6 26.6,7.4C26,7 25.3,6.5 24.8,6C24.5,5.6 24,5 23.7,4.5C23.6,4.4 23.7,4.3 23.8,4.2C23.9,4.2 24,4.1 24,4.1L24.1,4.1L24.3,4.3C24.5,4.6 25.1,5.2 25.4,5.6C26.1,6.2 26.8,6.8 27.6,7.2L27.7,7.3C27.9,7.4 28.5,7.8 28.8,7.9C29.5,8.2 30.3,8.6 31,8.9C31.7,9.2 32.5,9.5 33.1,9.8L33.2,9.8C34.1,10.3 34.9,10.8 35.7,11.4C36.5,12 37.3,12.5 38.2,12.9C38.7,13.2 39.3,13.3 39.9,13.3C40.9,13.2 41.8,13.1 42.8,12.9C43.8,12.7 44.8,12.5 45.7,12.4L45.8,12.4C46.5,12.4 47.3,12.4 48.1,12.5C49,12.6 49.8,12.5 50.5,12.5C50.8,12.5 51.5,12.4 51.7,12.4L51.9,12.4C52.8,12.3 53.7,12.1 54.6,11.8C55.1,11.6 55.8,11.2 56.2,11.1L56.4,11L56.5,11C56.6,11 56.6,11.1 56.7,11.2C56.9,11.3 56.9,11.4 56.8,11.5ZM94.4,25.5L94.4,25.7C94.4,26.1 94.1,26.5 93.6,26.5L87.9,26.5C87.6,26.5 87.2,26.3 87.2,25.9L86.6,21.8L77.4,21.8L75.4,25.5L75.2,25.9C74.9,26.5 74.8,26.5 73.7,26.5L66.8,26.5C66,26.5 66,26.5 65.5,25.7L61,18.2C60.3,17.1 59.7,16 59.2,14.8L57.3,25.2C57.1,26.5 57,26.5 55.7,26.5L51.8,26.5C50.7,26.5 50.4,26.4 50.5,25.7L50.6,25L51.7,18.6C51.2,19.7 50.5,20.7 49.8,21.7C47.2,25.1 43.2,26.9 38.3,26.9C30.7,26.9 25.6,22.6 25,16L23.3,25.2C23.1,26.5 23,26.5 21.7,26.5L17.8,26.5C16.7,26.5 16.3,26.4 16.3,25.7C16.3,25.5 16.3,25.2 16.4,25L18.1,15.7L8.7,15.7L7,25.2C6.8,26.5 6.7,26.5 5.4,26.5L1.4,26.5C0.3,26.5 0,26.4 0,25.7L0.1,25L4.3,1.8C4.5,0.5 4.6,0.5 5.9,0.5L9.9,0.5C11,0.5 11.3,0.6 11.3,1.3C11.3,1.5 11.3,1.8 11.2,2L9.8,10L19.1,10L20.6,1.8C20.8,0.5 20.9,0.5 22.2,0.5L26.3,0.5C27.4,0.5 27.8,0.7 27.7,1.3L27.6,2L26.9,5.8C26.6,5.5 26.3,5.3 26,5C25.7,4.7 25.2,4.1 25,3.7L24.8,3.5C24.7,3.3 24.5,3.2 24.3,3.2C24,3.1 23.7,3.2 23.4,3.4C22.9,3.7 22.7,4.3 23,4.8C23.4,5.4 23.9,6 24.4,6.6C25,7.2 25.6,7.7 26.3,8.2C26.5,8.3 27,8.7 27.6,9L27.8,9.1C28.1,9.3 28.5,9.5 28.9,9.8C29.4,10.2 30.1,10.6 30.9,11.1L31.2,11.3C31.7,11.6 32.1,11.9 32.4,12.1C32.3,12.5 32.2,13 32.2,13.5C31.9,17.6 34.6,20.4 38.8,20.4C42.5,20.4 45.3,18.2 46.2,14.9C46.6,14.9 47,14.8 47.5,14.7L47.8,14.6C48.8,14.5 49.5,14.4 50.1,14.3C50.6,14.2 51,14.2 51.4,14.1L51.6,14.1C52.2,14 52.9,13.9 53.1,13.9C53.9,13.8 54.7,13.6 55.5,13.3C56.2,13 56.9,12.6 57.5,12.2C58,11.9 58.1,11.3 57.8,10.8C57.6,10.5 57.3,10.3 57,10.2C56.8,10.2 56.6,10.2 56.4,10.3L56.3,10.3L56.1,10.4C55.8,10.6 55,10.9 54.6,11.1C53.8,11.4 53,11.6 52.1,11.7L51.9,11.7C51.8,11.7 51.1,11.8 50.8,11.8L48.3,11.8C47.6,11.7 46.9,11.7 46.3,11.7C45.8,8.5 43.4,6.4 39.9,6.4C37.6,6.3 35.3,7.3 33.8,9.1L33.7,9.1C33,8.8 32.2,8.5 31.5,8.2L31.4,8.2C30.6,7.9 29.8,7.5 29.2,7.2C28.9,7 28.3,6.7 28.2,6.6L28,6.5C27.8,6.4 27.7,6.3 27.5,6.2C30.3,2.4 34.9,0 40.4,0C47.7,0 52.6,4.2 53.2,10.8L54.8,1.8C55,0.5 55.1,0.5 56.4,0.5L60.3,0.5C61.4,0.5 61.7,0.6 61.7,1.3C61.7,1.5 61.7,1.8 61.6,2L59.8,11.7L68.4,1.2C69,0.4 69.1,0.4 69.8,0.4L74.7,0.4C75.8,0.4 76.1,0.6 76.1,1.1C76,1.6 75.8,2 75.6,2.3L66.3,13.7L70.6,20.5L81.4,1.4L81.6,1C81.9,0.4 82,0.4 83.1,0.4L89,0.4C89.5,0.4 89.8,0.7 89.9,1.1L94.4,25.5ZM80.3,16.5L85.6,16.5L84.5,8.2L80.3,16.5Z" style="fill:white;"/>
        </g>
    </g>
</svg>
