<?xml version="1.0" encoding="UTF-8" standalone="no"?>
<!DOCTYPE svg PUBLIC "-//W3C//DTD SVG 1.1//EN" "http://www.w3.org/Graphics/SVG/1.1/DTD/svg11.dtd">
<svg width="100%" height="100%" viewBox="0 0 512 512" version="1.1" xmlns="http://www.w3.org/2000/svg" xmlns:xlink="http://www.w3.org/1999/xlink" xml:space="preserve" xmlns:serif="http://www.serif.com/" style="fill-rule:evenodd;clip-rule:evenodd;stroke-linejoin:round;stroke-miterlimit:2;">
    <g transform="matrix(2.142857,0,0,3.695652,-150,-672.608696)">
        <path d="M70,228L70,182L149.333,182L149.333,198.235L117.799,198.235L189.467,239.791L261.134,198.235L229.6,198.235L229.6,182L308.933,182L308.933,228L280.933,228L280.933,209.715L209.266,251.271L280.933,292.826L280.933,274.541L308.933,274.541L308.933,320.541L229.6,320.541L229.6,304.306L261.134,304.306L189.467,262.751L117.799,304.306L149.333,304.306L149.333,320.541L70,320.541L70,274.541L98,274.541L98,292.826L169.668,251.271L98,209.715L98,228L70,228Z" style="fill:white;"/>
    </g>
</svg>
