<svg xmlns="http://www.w3.org/2000/svg" xml:space="preserve" style="fill-rule:evenodd;clip-rule:evenodd;stroke-linejoin:round;stroke-miterlimit:2" viewBox="0 0 512 399"><path d="M17.102.794c-1.163.175-2.28 4.453-4.524 6.684-1.644 1.605-3.69 1.512-4.783 3.497-.412.74-.279 2.011-.747 3.229-.918 2.434-4.147 2.649-4.147 5.304-.006 2.867 2.69 3.412 5.033 5.449 1.831 1.632 2.005 2.762 4.217 3.557 1.888.643 4.701-1.46 7.23-.702 2.077.618 4.066 1.061 4.535 3.194.412 1.97-.029 5.019-2.548 4.666-.849-.097-4.533-1.333-9.052-.855C6.854 35.439.629 37.22.018 43.306c-.336 3.399 3.872 7.41 7.933 6.596 2.81-.555 1.482-3.867 3.01-5.477 2.005-2.062 13.367 7.197 23.929 7.197 4.443 0 7.754-1.124 11.037-4.564.308-.263.681-.825 1.158-.862.447.037 1.227.477 1.485.664 8.505 6.835 14.937 20.55 46.199 20.711 4.4.026 9.404 2.125 13.494 5.853 3.647 3.373 5.78 8.623 7.854 13.947 3.131 7.985 8.735 15.758 17.234 24.4.464.463 7.464 5.904 8.023 6.309.088.061.604 1.288.425 1.972-.208 5.186-.962 20.26 10.279 20.941 2.743.141 2.027-1.794 2.027-3.119-.007-2.626-.484-5.235.896-7.924 1.895-3.696-4.012-5.397-3.841-13.393.125-5.957-4.886-4.944-7.423-9.483-1.461-2.633-2.764-4.027-2.67-7.246.574-18.107-3.854-30.005-6.058-32.929-1.723-2.206-3.146-3.079-1.571-4.101 9.377-6.197 11.504-11.958 11.504-11.958 4.987-11.725 9.472-22.433 15.659-27.146 1.247-.974 4.439-3.362 6.396-4.294 5.778-2.722 8.813-4.371 10.491-6.004 2.645-2.581 4.748-7.974 2.206-11.242-3.164-4.033-8.632-.833-11.044.599-17.243 10.233-19.782 28.285-25.756 38.649-4.767 8.285-12.514 14.369-19.441 14.866-5.189.386-10.79-.664-16.362-3.112-13.557-5.943-20.971-13.618-22.726-14.973-3.64-2.809-31.915-30.569-54.819-31.699 0 0-2.845-5.693-3.559-5.787-1.676-.215-3.39 3.398-4.619 3.819-1.155.383-3.099-3.912-4.266-3.722" style="fill:#fff" transform="translate(.002 -.54)scale(2.83119)"/></svg>