<svg xmlns="http://www.w3.org/2000/svg" xml:space="preserve" style="fill-rule:evenodd;clip-rule:evenodd;stroke-linejoin:round;stroke-miterlimit:2" viewBox="0 0 512 512"><path d="M0 0a2.01 2.01 0 0 0 2.01-2.011v-17.561c0-1.111-.9-2.009-2.01-2.009h-17.564a2.01 2.01 0 0 0-2.009 2.009v17.561c0 1.112.9 2.011 2.009 2.011zm-10.342-16.051c-.203 0-.468.079-.748.235l-1.727.971c-.256.144-.534.238-.756.238H-15.8a.396.396 0 0 1-.397-.398v-2.274c0-.437.366-.777.79-.828 4.44-.431 8.809-.43 13.248.002.436.045.793.393.793.832v3.782c0 .622-.347 1.217-.858 1.505l-8.952 5.035c-.212.106-.35.373-.35.644 0 .428.27.774.697.774h3.608c.203 0 .469-.077.749-.235l1.727-.971c.255-.141.534-.237.755-.237h2.227c.219 0 .397.18.397.398v2.273c0 .439-.366.777-.79.828a68 68 0 0 1-13.247 0c-.438-.045-.794-.394-.794-.835v-3.779c0-.626.347-1.217.859-1.507l8.951-5.035c.212-.106.351-.377.351-.644 0-.425-.27-.774-.698-.774z" style="fill:#fff;fill-rule:nonzero" transform="matrix(23.72237 0 0 -23.72457 464.318 0)"/></svg>