<?xml version="1.0" encoding="UTF-8" standalone="no"?>
<!DOCTYPE svg PUBLIC "-//W3C//DTD SVG 1.1//EN" "http://www.w3.org/Graphics/SVG/1.1/DTD/svg11.dtd">
<svg width="100%" height="100%" viewBox="0 0 545 159" version="1.1" xmlns="http://www.w3.org/2000/svg" xmlns:xlink="http://www.w3.org/1999/xlink" xml:space="preserve" xmlns:serif="http://www.serif.com/" style="fill-rule:evenodd;clip-rule:evenodd;stroke-linejoin:round;stroke-miterlimit:2;">
    <g transform="matrix(1,0,0,1,-16.17,-20.07)">
        <path d="M86.23,48.45C82.87,42.65 77.99,39 70.5,39C63.33,39 55.54,44.5 54.32,51.97C51.27,71.35 98.27,63.27 92.17,101.87C88.51,124.92 71.57,141.25 48.07,141.25C32.19,141.25 21.97,132.09 16.17,118.81L32.96,104.62C34.64,113.47 41.35,121.41 50.96,121.41C60.12,121.41 67.14,113.63 68.52,104.78C70.35,92.88 59.97,89.51 51.42,86C37.69,79.9 27.92,72.42 30.82,54.57C33.87,35.49 50.51,20.07 69.89,20.07C80.11,20.07 93.39,25.11 99.19,32.9L86.23,48.45M124.65,63.26L118.24,103.85C116.87,112.4 116.56,122.62 127.4,122.62C138.23,122.62 141.28,112.4 142.66,103.85L149.06,63.25L170.43,63.25L163.41,107.35C159.91,129.18 146.78,140.63 124.5,140.63C102.22,140.63 92.75,129.18 96.26,107.36L103.28,63.26L124.65,63.26M226.9,100.64C228.42,90.57 223.53,79.74 212.55,79.74C201.55,79.74 193.01,90.57 191.49,100.64C189.96,110.72 194.84,121.7 205.83,121.7C216.82,121.7 225.36,110.72 226.89,100.64L226.9,100.64ZM198.5,70.12C204.3,64.32 212.7,60.82 220.63,60.82C241.85,60.82 251.77,80.65 248.56,100.34C245.36,120.79 229.64,140.63 207.51,140.63C199.88,140.63 192.41,137.27 189.04,131.17L188.74,131.17L181.41,178.17L160.05,178.17L178.2,63.26L199.56,63.26L198.5,70.12M279.66,71.04L279.96,71.04C285.3,64.48 292.17,60.81 300.11,60.81C303.16,60.81 306.21,61.58 308.65,62.65L303.01,82.48C300.608,80.63 297.641,79.662 294.61,79.74C279.81,79.74 276.15,92.86 274.31,104.46L268.97,138.19L247.61,138.19L259.51,63.26L280.88,63.26L279.66,71.04M353.21,90.88C353.36,83.25 349.7,75.77 341.46,75.77C332.91,75.77 326.96,83.09 324.67,90.87L353.21,90.88ZM321.93,104.15C320.55,113.62 322.38,124.3 333.53,124.3C340.54,124.3 345.73,120.03 349.55,114.07L368.78,117.27C361.15,132.23 346.65,140.63 330.93,140.63C307.73,140.63 296.29,124.15 299.8,101.41C303.46,78.67 318.26,60.81 342.53,60.81C367.1,60.81 375.19,78.97 371.68,101.56L371.22,104.16L321.92,104.16M402.04,69.97L402.34,69.97C407.301,64.255 414.473,60.92 422.04,60.81C431.34,60.81 438.06,64.63 441.72,72.56C447.52,65.24 456.67,60.81 465.37,60.81C484.45,60.81 486.89,75.16 484.3,91.49L476.97,138.19L455.61,138.19L461.86,98.81C462.93,91.49 465.68,77.91 455.15,77.91C443.55,77.91 441.11,93.62 439.89,101.41L434.09,138.19L412.72,138.19L418.67,100.19C419.9,92.86 423.25,77.91 412.11,77.91C400.21,77.91 398.23,93.47 397.01,101.41L391.21,138.19L369.84,138.19L381.74,63.26L403.11,63.26L402.04,69.97M541.36,90.88C541.52,83.25 537.86,75.77 529.61,75.77C521.07,75.77 515.11,83.09 512.83,90.87L541.36,90.88ZM510.08,104.15C508.71,113.62 510.54,124.3 521.68,124.3C528.7,124.3 533.88,120.03 537.7,114.07L556.93,117.27C549.3,132.23 534.8,140.63 519.08,140.63C495.88,140.63 484.44,124.15 487.95,101.41C491.61,78.67 506.42,60.81 530.68,60.81C555.25,60.81 563.34,78.97 559.83,101.56L559.37,104.16L510.08,104.16" style="fill:white;fill-rule:nonzero;"/>
    </g>
</svg>
