<?xml version="1.0" encoding="UTF-8" standalone="no"?>
<!DOCTYPE svg PUBLIC "-//W3C//DTD SVG 1.1//EN" "http://www.w3.org/Graphics/SVG/1.1/DTD/svg11.dtd">
<svg width="100%" height="100%" viewBox="0 0 370 171" version="1.1" xmlns="http://www.w3.org/2000/svg" xmlns:xlink="http://www.w3.org/1999/xlink" xml:space="preserve" xmlns:serif="http://www.serif.com/" style="fill-rule:evenodd;clip-rule:evenodd;stroke-linejoin:round;stroke-miterlimit:2;">
    <g transform="matrix(1,0,0,1,-58.838457,-152.412378)">
        <g transform="matrix(2.834646,0,0,2.834646,0,0)">
            <path id="_54807896" d="M107.826,73.677L109.77,73.68L109.77,73.681L110.944,73.71L112.1,73.798L113.239,73.944L114.359,74.143L115.461,74.397L116.54,74.704L117.598,75.063L118.633,75.47L119.64,75.926L120.622,76.428L121.576,76.977L122.499,77.57L123.391,78.204L124.252,78.881L125.077,79.597L125.868,80.35L126.622,81.142L127.338,81.967L128.013,82.829L128.648,83.722L129.241,84.645L129.789,85.599L130.291,86.581L130.747,87.589L131.154,88.623L131.512,89.681L131.82,90.761L132.074,91.864L132.273,92.985L132.418,94.124L132.506,95.28L132.536,96.454L132.537,113.258L118.067,113.257L118.064,100.242L118.065,100.242L118.055,99.887L118.028,99.535L117.985,99.188L117.923,98.846L117.846,98.512L117.753,98.181L117.644,97.859L117.519,97.545L117.38,97.237L117.227,96.938L117.06,96.649L116.881,96.367L116.688,96.095L116.481,95.834L116.263,95.581L116.034,95.34L115.793,95.111L115.541,94.893L115.28,94.687L115.008,94.494L114.725,94.314L114.436,94.147L114.137,93.994L113.829,93.855L113.515,93.73L113.19,93.621L112.861,93.528L112.526,93.451L112.184,93.388L111.836,93.345L111.484,93.319L111.129,93.31L107.826,93.321L107.826,73.677ZM133.324,113.258L133.323,96.454L133.293,95.243L133.202,94.047L133.054,92.867L132.845,91.706L132.582,90.567L132.265,89.449L131.895,88.354L131.473,87.284L131.001,86.239L130.48,85.223L129.914,84.237L129.302,83.28L128.645,82.357L127.946,81.468L127.205,80.611L126.426,79.795L125.608,79.014L124.752,78.273L123.863,77.574L122.94,76.916L121.983,76.304L120.998,75.737L119.983,75.216L118.938,74.745L117.869,74.322L116.775,73.952L115.656,73.635L114.517,73.371L113.356,73.163L112.177,73.014L110.981,72.923L109.77,72.891L109.77,72.893L107.826,72.89L107.826,53.768L107.846,53.768C131.749,53.768 151.019,73.155 151.019,97.065L151.019,113.259L133.324,113.258ZM107.826,94.108L111.129,94.097L111.447,94.105L111.759,94.129L112.067,94.169L112.369,94.222L112.667,94.29L112.959,94.374L113.243,94.471L113.523,94.58L113.794,94.703L114.06,94.839L114.318,94.987L114.567,95.148L114.808,95.319L115.041,95.501L115.263,95.694L115.476,95.899L115.68,96.112L115.873,96.334L116.055,96.567L116.227,96.808L116.387,97.056L116.536,97.315L116.671,97.58L116.794,97.851L116.903,98.131L117,98.416L117.083,98.706L117.152,99.004L117.205,99.306L117.245,99.613L117.268,99.924L117.275,100.242L117.277,100.242L117.28,113.257L107.826,113.256L107.826,94.108Z" style="fill:white;"/>
            <path id="_54807176" d="M68.093,72.407L64.209,72.407L64.209,57.102L58.586,57.102L58.586,53.814L73.716,53.814L73.716,57.102L68.093,57.102L68.093,72.407Z" style="fill:white;"/>
            <path id="_54806200" d="M78.608,64.067L78.608,72.407L74.724,72.407L74.724,53.814L78.608,53.814L78.608,60.861L85.854,60.861L85.854,53.814L89.742,53.814L89.742,72.407L85.854,72.407L85.854,64.067L78.608,64.067Z" style="fill:white;"/>
            <path id="_54805224" d="M105.284,57.102L95.513,57.102L95.513,61.014L104.117,61.014L104.117,64.301L95.513,64.301L95.513,69.119L105.306,69.119L105.306,72.407L91.895,72.407L91.895,53.814L105.284,53.814L105.284,57.102Z" style="fill:white;"/>
            <path id="_54804504" d="M32.279,74.244L35.91,74.244L35.91,92.835L32.023,92.835L24.437,79.578L24.381,79.578L24.381,92.835L20.757,92.835L20.757,74.244L24.845,74.244L32.227,87.19L32.279,87.19L32.279,74.244Z" style="fill:white;"/>
            <path id="_54803152" d="M46.749,90.039C48.846,90.039 51.794,88.744 51.794,83.539C51.794,78.337 48.845,77.037 46.749,77.037C44.653,77.037 41.695,78.337 41.695,83.539C41.696,88.744 44.653,90.039 46.749,90.039ZM46.749,73.75C49.208,73.75 55.677,74.813 55.677,83.539C55.678,92.263 49.207,93.327 46.749,93.327C44.285,93.327 37.811,92.263 37.811,83.539C37.812,74.813 44.285,73.75 46.749,73.75Z" style="fill:white;"/>
            <path id="_54865864" d="M83.249,92.835L79.362,92.835L79.362,77.53L73.743,77.53L73.743,74.244L88.862,74.244L88.862,77.53L83.249,77.53L83.249,92.835Z" style="fill:white;"/>
            <path id="_54865008" d="M94.141,84.5L94.141,92.835L90.26,92.835L90.26,74.244L94.141,74.244L94.141,81.284L101.39,81.284L101.39,74.244L105.284,74.244L105.284,92.835L101.39,92.835L101.39,84.5L94.141,84.5Z" style="fill:white;"/>
            <path id="_54864288" d="M49.843,113.262L45.959,113.262L45.959,94.67L59.188,94.67L59.188,97.961L49.843,97.961L49.843,102.155L58.028,102.155L58.028,105.446L49.843,105.446L49.843,113.262Z" style="fill:white;"/>
            <path id="_54863304" d="M63.289,106.22L68.022,106.22L65.719,98.865L65.67,98.865L63.289,106.22ZM60.954,113.262L56.863,113.262L63.496,94.67L67.976,94.67L74.523,113.262L70.3,113.262L69.109,109.429L62.252,109.429L60.954,113.262Z" style="fill:white;"/>
            <path id="_54862224" d="M86.453,100.756C86.149,99.643 85.546,97.545 82.332,97.545C80.47,97.545 77.723,98.788 77.723,104.043C77.723,107.385 79.044,110.391 82.332,110.391C84.487,110.391 85.987,109.171 86.453,106.895L90.334,106.895C89.56,110.933 86.922,113.755 82.258,113.755C77.312,113.755 73.761,110.419 73.761,103.993C73.761,97.494 77.516,94.179 82.313,94.179C87.879,94.179 90.127,98.013 90.334,100.756L86.453,100.756Z" style="fill:white;"/>
            <path id="_55197680" d="M105.284,97.961L95.513,97.961L95.513,101.867L104.117,101.867L104.117,105.157L95.513,105.157L95.513,109.974L105.306,109.974L105.306,113.262L91.895,113.262L91.895,94.67L105.284,94.67L105.284,97.961Z" style="fill:white;"/>
            <path id="_55197592" d="M65.932,82.4C67.948,82.4 68.929,81.701 68.929,79.865C68.929,78.887 68.488,77.44 66.215,77.44L61.384,77.44L61.384,82.4L65.932,82.4ZM57.582,74.234L66.966,74.234C71.899,74.234 72.8,77.876 72.8,79.483C72.801,81.52 71.766,83.278 69.933,83.899C71.459,84.57 72.288,85.137 72.288,88.599C72.288,91.313 72.288,91.984 73.113,92.296L73.114,92.784L68.818,92.784C68.562,91.907 68.411,90.948 68.411,89.039C68.411,86.507 68.259,85.524 65.385,85.524L61.384,85.524L61.384,92.784L57.582,92.784L57.582,74.234Z" style="fill:white;"/>
            <g>
                <path d="M39.495,109.32L39.693,109.517L39.693,111.91L39.298,111.91L39.298,109.517L39.495,109.32ZM39.298,109.517L39.298,109.32L39.495,109.32L39.298,109.517ZM40.542,109.715L39.495,109.715L39.495,109.32L40.542,109.32L40.542,109.715ZM41.583,110.15L41.188,110.15L41.188,110.121L41.187,110.093L41.184,110.067L41.181,110.042L41.176,110.018L41.171,109.996L41.166,109.975L41.159,109.956L41.152,109.939L41.143,109.922L41.134,109.906L41.125,109.892L41.114,109.878L41.101,109.864L41.09,109.852L41.075,109.839L41.06,109.827L41.041,109.814L41.022,109.803L40.999,109.791L40.976,109.78L40.95,109.77L40.921,109.761L40.89,109.752L40.856,109.744L40.818,109.736L40.779,109.73L40.737,109.724L40.693,109.72L40.646,109.717L40.595,109.715L40.542,109.715L40.542,109.32L40.604,109.321L40.664,109.324L40.724,109.327L40.781,109.333L40.836,109.34L40.889,109.349L40.939,109.358L40.99,109.371L41.038,109.384L41.084,109.4L41.129,109.418L41.172,109.438L41.213,109.459L41.252,109.482L41.289,109.507L41.326,109.535L41.358,109.564L41.391,109.597L41.419,109.63L41.445,109.664L41.47,109.701L41.491,109.738L41.51,109.776L41.526,109.816L41.54,109.856L41.552,109.897L41.562,109.938L41.57,109.98L41.576,110.021L41.58,110.064L41.582,110.107L41.583,110.15ZM40.638,111.002L40.638,110.607L40.634,110.608L40.669,110.607L40.701,110.604L40.735,110.602L40.766,110.598L40.795,110.593L40.825,110.588L40.853,110.582L40.88,110.575L40.905,110.567L40.93,110.559L40.974,110.54L40.995,110.529L41.015,110.518L41.033,110.506L41.049,110.494L41.066,110.481L41.08,110.467L41.094,110.453L41.106,110.438L41.118,110.422L41.129,110.406L41.139,110.387L41.148,110.368L41.157,110.347L41.165,110.324L41.172,110.301L41.177,110.275L41.182,110.247L41.186,110.217L41.188,110.186L41.188,110.15L41.583,110.15L41.581,110.201L41.578,110.252L41.572,110.302L41.564,110.35L41.554,110.397L41.541,110.443L41.526,110.486L41.508,110.529L41.488,110.571L41.465,110.609L41.441,110.647L41.415,110.683L41.386,110.717L41.356,110.748L41.323,110.778L41.291,110.805L41.255,110.831L41.22,110.854L41.183,110.875L41.146,110.894L41.106,110.913L41.067,110.927L41.027,110.942L40.986,110.954L40.944,110.965L40.902,110.974L40.86,110.982L40.817,110.988L40.773,110.993L40.73,110.998L40.686,111L40.642,111.001L40.638,111.002ZM40.642,111.001L40.638,111.002L40.604,111.002L40.642,111.001ZM39.495,110.607L40.638,110.607L40.638,111.002L39.495,111.002L39.495,110.607ZM41.179,111.991L40.481,110.92L40.811,110.706L41.509,111.776L41.179,111.991Z" style="fill:white;fill-rule:nonzero;"/>
            </g>
            <g>
                <path d="M37.936,110.715L37.541,110.715L37.545,110.575L37.556,110.435L37.573,110.298L37.598,110.163L37.629,110.03L37.665,109.9L37.708,109.772L37.758,109.647L37.813,109.526L37.874,109.407L37.94,109.293L38.01,109.181L38.087,109.073L38.169,108.97L38.255,108.87L38.346,108.775L38.441,108.684L38.54,108.598L38.644,108.516L38.752,108.44L38.864,108.369L38.978,108.302L39.097,108.242L39.218,108.187L39.343,108.138L39.471,108.094L39.601,108.058L39.733,108.027L39.869,108.002L40.006,107.985L40.145,107.975L40.286,107.971L40.286,108.365L40.164,108.368L40.045,108.377L39.927,108.392L39.812,108.412L39.698,108.439L39.587,108.471L39.477,108.508L39.371,108.549L39.267,108.596L39.166,108.649L39.067,108.705L38.972,108.766L38.88,108.832L38.792,108.902L38.706,108.975L38.625,109.054L38.546,109.135L38.473,109.22L38.403,109.309L38.337,109.401L38.276,109.496L38.219,109.595L38.167,109.696L38.12,109.8L38.078,109.906L38.041,110.015L38.009,110.127L37.983,110.241L37.963,110.356L37.948,110.474L37.939,110.593L37.936,110.715ZM40.285,113.064L40.285,113.459L40.285,113.458L40.145,113.455L40.006,113.444L39.868,113.428L39.733,113.403L39.6,113.372L39.47,113.336L39.343,113.293L39.218,113.243L39.097,113.188L38.978,113.128L38.863,113.062L38.752,112.991L38.644,112.914L38.541,112.833L38.441,112.747L38.346,112.656L38.255,112.561L38.169,112.461L38.088,112.358L38.01,112.25L37.939,112.139L37.873,112.024L37.813,111.905L37.758,111.784L37.708,111.659L37.665,111.531L37.628,111.401L37.598,111.268L37.573,111.133L37.556,110.995L37.545,110.856L37.541,110.715L37.936,110.715L37.939,110.837L37.948,110.957L37.963,111.074L37.983,111.191L38.009,111.304L38.041,111.416L38.078,111.525L38.12,111.631L38.167,111.736L38.22,111.836L38.276,111.935L38.337,112.03L38.402,112.122L38.472,112.211L38.546,112.296L38.624,112.377L38.706,112.455L38.791,112.529L38.88,112.599L38.972,112.664L39.067,112.726L39.166,112.781L39.266,112.834L39.371,112.881L39.477,112.923L39.587,112.959L39.698,112.991L39.812,113.017L39.927,113.037L40.044,113.053L40.163,113.062L40.285,113.065L40.285,113.064ZM40.285,113.065L40.285,113.064L40.285,113.065ZM42.635,110.715L43.029,110.715L43.025,110.856L43.015,110.995L42.998,111.133L42.973,111.268L42.944,111.401L42.906,111.531L42.863,111.659L42.815,111.784L42.759,111.905L42.7,112.024L42.633,112.139L42.562,112.25L42.486,112.358L42.405,112.461L42.319,112.561L42.228,112.656L42.133,112.747L42.034,112.833L41.93,112.914L41.823,112.991L41.711,113.062L41.596,113.128L41.477,113.188L41.356,113.243L41.231,113.293L41.103,113.336L40.973,113.372L40.839,113.403L40.704,113.428L40.566,113.444L40.426,113.455L40.285,113.459L40.285,113.064L40.407,113.062L40.527,113.053L40.645,113.037L40.762,113.017L40.875,112.991L40.987,112.959L41.097,112.922L41.203,112.881L41.308,112.834L41.408,112.781L41.507,112.726L41.602,112.664L41.694,112.599L41.782,112.529L41.868,112.455L41.949,112.377L42.027,112.296L42.101,112.211L42.17,112.122L42.235,112.031L42.297,111.935L42.353,111.836L42.405,111.735L42.451,111.631L42.493,111.525L42.53,111.415L42.561,111.304L42.588,111.191L42.608,111.074L42.623,110.956L42.632,110.837L42.635,110.715ZM40.286,108.365L40.286,107.971L40.427,107.975L40.566,107.985L40.704,108.002L40.839,108.027L40.973,108.058L41.103,108.094L41.231,108.138L41.356,108.187L41.477,108.242L41.596,108.302L41.711,108.369L41.823,108.44L41.93,108.517L42.034,108.598L42.133,108.684L42.228,108.775L42.319,108.871L42.405,108.97L42.486,109.074L42.562,109.181L42.633,109.293L42.7,109.408L42.759,109.526L42.814,109.647L42.863,109.772L42.906,109.9L42.944,110.03L42.973,110.163L42.998,110.298L43.015,110.435L43.025,110.575L43.03,110.715L42.635,110.715L42.632,110.593L42.623,110.474L42.608,110.357L42.588,110.241L42.561,110.127L42.53,110.016L42.493,109.907L42.452,109.8L42.405,109.696L42.353,109.594L42.297,109.496L42.235,109.401L42.17,109.308L42.101,109.22L42.027,109.134L41.949,109.053L41.868,108.976L41.782,108.902L41.694,108.831L41.602,108.767L41.507,108.705L41.408,108.649L41.308,108.597L41.203,108.549L41.097,108.508L40.988,108.471L40.876,108.439L40.762,108.413L40.646,108.393L40.528,108.377L40.408,108.368L40.286,108.365ZM40.286,108.365L40.286,108.365L40.286,108.365Z" style="fill:white;fill-rule:nonzero;"/>
            </g>
        </g>
    </g>
</svg>
